<svg xmlns="http://www.w3.org/2000/svg" xmlns:xlink="http://www.w3.org/1999/xlink" width="500" zoomAndPan="magnify" viewBox="0 0 375 374.999991" height="500" preserveAspectRatio="xMidYMid meet" version="1.0"><defs><g/></defs><g fill="#2b77e7" fill-opacity="1"><g transform="translate(134.062056, 213.526349)"><g><path d="M 27.3125 -76.59375 L 27.3125 -22.0625 C 27.3125 -7.351562 18.65625 0 1.34375 0 L 1.34375 -8.03125 C 12.050781 -8.03125 17.40625 -12.707031 17.40625 -22.0625 L 17.40625 -76.59375 Z M 27.3125 -76.59375 "/></g></g></g><g fill="#2b77e7" fill-opacity="1"><g transform="translate(171.021263, 213.526349)"><g><path d="M 9.109375 0 L 9.109375 -76.59375 L 41.78125 -76.59375 C 56.351562 -76.59375 63.640625 -70.46875 63.640625 -58.21875 C 63.640625 -48.257812 56.515625 -40.890625 42.265625 -36.109375 L 68.5625 0 L 55.5 0 L 31.125 -34.4375 L 31.125 -40.921875 C 45.757812 -43.242188 53.078125 -48.867188 53.078125 -57.796875 C 53.078125 -64.867188 49.007812 -68.40625 40.875 -68.40625 L 19.015625 -68.40625 L 19.015625 0 Z M 9.109375 0 "/></g></g></g></svg>