<svg width="64" height="62" viewBox="0 0 64 62" fill="none" xmlns="http://www.w3.org/2000/svg">
<path d="M32 59.7502C32 59.7502 22.7804 58.5002 16.9234 58.5002C14.1334 58.5002 10.6153 58.7838 7.69578 59.0808C4.67845 59.3878 2 57.0464 2 54.0135V15.5115C2 13.5294 3.16954 11.7177 5.07342 11.1667C6.11488 10.8652 7.32725 10.5801 8.55655 10.4324M32 59.7502C32 59.7502 40.9131 58.5002 46.7701 58.5002C49.6188 58.5002 53.2992 58.7958 56.3284 59.0995C59.3372 59.4012 62 57.063 62 54.039V15.3672C62 13.4593 60.9118 11.7011 59.0763 11.1802C58.1891 10.9284 57.1498 10.6943 56.0307 10.5598M32 59.7502V52.2399M32 52.2399C32 52.2399 24.1856 51.0002 19.5 51.0002C17.8635 51.0002 15.9978 51.1517 14.2626 51.3489C11.1337 51.7046 8.27149 49.3114 8.29458 46.1624L8.55655 10.4324M32 52.2399C32 52.2399 39.4064 51.0002 44.092 51.0002C45.8335 51.0002 47.891 51.1894 49.7889 51.4272C52.8992 51.8169 55.7695 49.4682 55.7905 46.3336L56.0307 10.5598M32 52.2399V3.5M8.55655 10.4324V7.69847C8.55655 5.27069 10.3007 3.19183 12.7074 2.87283C15.0596 2.56105 17.9818 2.25 20.2783 2.25C24.8818 2.25 32 3.5 32 3.5M56.0307 10.5598V7.71638C56.0307 5.28068 54.2761 3.198 51.8607 2.8839C49.4351 2.56846 46.3965 2.25 44.0153 2.25C39.2977 2.25 32 3.5 32 3.5" stroke="#616E7C" stroke-width="3.75" stroke-linecap="round" stroke-linejoin="round"/>
</svg>
