<svg id="Layer_1" data-name="Layer 1" xmlns="http://www.w3.org/2000/svg" viewBox="0 0 1000 1000"><defs><style>.cls-1{fill:#d1d3d4;}</style></defs><path class="cls-1" d="M262.67,236.9v240c0,.4.58,43.48,30.29,100,27.27,51.81,85.32,125.76,207.18,184.89,122-59.14,179.93-133.1,207.11-184.9,29.62-56.46,30.09-99.53,30.09-100v-240ZM500.14,775.55l-2.7-1.29c-127.18-61-187.6-138.28-215.88-192.35-30.87-59-31.34-103.15-31.34-105V224.45H749.78V476.9c0,1.84-.34,46-31.12,105C690.47,636,630.13,713.22,502.83,774.26Z"/><path class="cls-1" d="M410.13,318.27a55.13,55.13,0,0,0-21.79-17.43,66.36,66.36,0,0,1,8.29,17.43Z"/><path class="cls-1" d="M370.88,297.3v21h16c-4-11-9.88-18.41-16-21"/><path class="cls-1" d="M340.4,346.31h21.14v-18.7H342.82a101.32,101.32,0,0,0-2.42,18.7"/><path class="cls-1" d="M345.58,318.27h16v-21c-6.08,2.55-11.94,10-16,21"/><path class="cls-1" d="M342.82,374.35h18.72V355.64H340.4a101.43,101.43,0,0,0,2.42,18.71"/><path class="cls-1" d="M361.54,404.65v-21h-16c4,11,9.88,18.42,16,21"/><path class="cls-1" d="M331.07,355.64H311.6a54.53,54.53,0,0,0,5.07,18.71h16.65a111.67,111.67,0,0,1-2.25-18.71"/><path class="cls-1" d="M389.59,327.61H370.88v18.7H392a100.55,100.55,0,0,0-2.43-18.7"/><path class="cls-1" d="M333.31,327.61H316.66a54.63,54.63,0,0,0-5.06,18.7h19.47a110.41,110.41,0,0,1,2.24-18.7"/><path class="cls-1" d="M322.29,383.68a55.17,55.17,0,0,0,21.78,17.43,66.83,66.83,0,0,1-8.29-17.43Z"/><path class="cls-1" d="M401.35,346.31h19.46a54.19,54.19,0,0,0-5.06-18.7H399.1a112.46,112.46,0,0,1,2.25,18.7"/><path class="cls-1" d="M344.06,300.84a55.07,55.07,0,0,0-21.77,17.43h13.49a67,67,0,0,1,8.28-17.43"/><path class="cls-1" d="M399.1,374.35h16.65a54.3,54.3,0,0,0,5.06-18.71H401.35a111.67,111.67,0,0,1-2.25,18.71"/><path class="cls-1" d="M691.25,379.34l-59.84,35.11-59.89-35.11V311.58h9.34V374l50.55,29.62L681.91,374V311.58h9.34Zm-101-73.68s24.91.41,36.1,21v62.59c-11.19-20.6-36.1-21-36.1-21s-.35-63,0-62.59m45.37,21.54c11.31-20.6,36.48-21,36.48-21,.37-.41,0,62.59,0,62.59s-25.17.39-36.48,21Zm-81.46,96.48H445.82v-10.9h16.41V359.23h75.53v53.55h16.42Zm-188-8.53A64.18,64.18,0,1,1,430.39,351a64.25,64.25,0,0,1-64.18,64.17m139.24-163v6.22a12.78,12.78,0,0,1,0,23.78v7.56c7.13,2.61,20,8.85,25.9,21.53A68.31,68.31,0,0,1,537.92,339H543v10.9H457V339h5.08a68.31,68.31,0,0,1,6.57-27.79c5.87-12.65,18.75-18.92,25.89-21.54v-7.55a12.78,12.78,0,0,1,0-23.77v-6.23H280.8V470.25s0,9.81,3.28,26.14l1.12-.38c23.37-8,65.55-21.66,93.48-21.66s38.18,7.41,65,7.41c3.09,0,6.08.07,9,.17V433h94.72v50.58c19-.56,33.1,0,50.18,3.07,23.66,4.28,38.19,19.67,55,22.24s31.62-1.15,49.59-.29l11,.52c6.08-23.82,6.09-38.82,6.09-38.82V252.11Z"/><path class="cls-1" d="M392,355.64H370.88v18.71h18.71A101.4,101.4,0,0,0,392,355.64"/><path class="cls-1" d="M370.88,404.65c6.08-2.56,11.93-10,16-21h-16Z"/><path class="cls-1" d="M388.34,401.11a54.92,54.92,0,0,0,21.78-17.42H396.63a66.61,66.61,0,0,1-8.29,17.42"/><rect class="cls-1" x="489.91" y="442.61" width="20.19" height="34.94"/><path class="cls-1" d="M486.37,642.45c-1.54-1.23-3.94-2.46-7.94-4.12-3,1.6-5.17,4.06-5.17,7.63,0,4.31,3.08,7.08,7.88,7.08,4.31,0,7.26-2.52,7.26-6.16a5.27,5.27,0,0,0-2-4.43"/><path class="cls-1" d="M481.2,632.61c2.71-1.36,5.91-3.51,5.91-6.9s-2.4-5.23-6.52-5.23c-3.95,0-6.53,2.15-6.53,5.35,0,3.58,4.25,5.61,7.14,6.78"/><path class="cls-1" d="M515.37,620.66c-2.41,0-4.25,1.91-5.42,5.17a31.18,31.18,0,0,0-1.42,10.53,42.21,42.21,0,0,0,.87,9.61c1.1,4.79,3.32,6.83,5.9,6.83s4.67-2.22,5.79-5.79a36.9,36.9,0,0,0,1.17-10.28,40.11,40.11,0,0,0-.92-9.42c-1.17-4.8-3.27-6.65-6-6.65"/><path class="cls-1" d="M549.71,657.85c-10.84,0-14.28-12.63-14.28-21.43,0-12.13,6.15-20.87,14.34-20.87,11,0,14.47,12.13,14.47,21.06,0,12.74-5.91,21.24-14.53,21.24m-34.47,0c-10.83,0-14.28-12.63-14.28-21.43,0-12.13,6.16-20.87,14.35-20.87,11,0,14.46,12.13,14.46,21.06,0,12.74-5.91,21.24-14.53,21.24m-34.78.24c-7.08,0-14.52-3.51-14.52-11.64a11.29,11.29,0,0,1,7.87-10.58,10.54,10.54,0,0,1-6.58-9.42c0-7.82,7.27-10.9,14-10.9,7.75,0,13.12,4.13,13.12,10.16,0,5-3.95,7.88-8.2,9.48,6,2.46,9.73,5.41,9.73,10.52,0,7.95-8.31,12.38-15.39,12.38M460,656.92H440.45v-5.48h7.14V624.11c-.61.37-2.52,1.6-4.18,2.4s-3.94,1.78-4.69,2l-1.65-3.63,12.37-8.68h4.8v35.21H460ZM563,565.2v.22H437.19L346,622.55c32.49,39.74,81.13,81.16,154.05,116.09,73.09-35,121.77-76.5,154.22-116.29Z"/><path class="cls-1" d="M549.83,620.66c-2.4,0-4.25,1.91-5.41,5.17A30.93,30.93,0,0,0,543,636.36a42.89,42.89,0,0,0,.86,9.61c1.11,4.79,3.33,6.83,5.91,6.83s4.68-2.22,5.79-5.79a36.9,36.9,0,0,0,1.17-10.28,39.52,39.52,0,0,0-.93-9.42c-1.17-4.8-3.26-6.65-6-6.65"/><rect class="cls-1" x="435.03" y="492.79" width="129.95" height="9.34"/><path class="cls-1" d="M460.41,543.6h79.18V524.67H460.41Zm88.52,9.33H451.07V515.34h97.86Z"/><rect class="cls-1" x="489.91" y="369.59" width="20.19" height="31.35"/><rect class="cls-1" x="472.81" y="369.65" width="6.22" height="31.28"/><rect class="cls-1" x="520.96" y="369.65" width="6.23" height="31.28"/><path class="cls-1" d="M505.93,270.24A5.94,5.94,0,1,1,500,264.6a5.77,5.77,0,0,1,5.92,5.64"/><path class="cls-1" d="M437,531.58l-108,68.12q3.45,5,7.24,10.16L437,546.3Z"/><path class="cls-1" d="M563,546.82l100.62,63.6q3.79-5.11,7.26-10.15L563,532.1Z"/></svg>