<svg width="175" height="200" viewBox="0 0 175 200" fill="none" xmlns="http://www.w3.org/2000/svg">
<path d="M111.517 8.39312C118.058 4.10776 125.698 -0.121222 133.804 1.10518C132.591 6.71562 130.392 12.0441 129.265 17.6828C134.114 16.1603 138.582 12.8194 143.826 12.9886C143.855 13.5525 143.897 14.6802 143.925 15.2441C140.641 19.8959 135.749 23.1945 132.789 28.1001C128.123 35.8533 124.303 44.1843 122.456 53.0793C131.675 49.5128 140.767 45.5658 150.212 42.5491C157.458 40.1527 164.562 36.1352 172.457 36.9951C171.879 38.9404 172.386 42.0276 169.609 42.3236C161.518 44.565 153.764 47.8776 146.364 51.7965C144.038 52.8678 143.629 55.7153 142.882 57.8862C151.636 62.3971 161.306 65.146 169.708 70.404C171.85 73.477 173.091 77.0717 174.839 80.3703C168.58 78.876 162.279 75.1545 155.682 77.1421C145.419 80.0742 136.059 85.445 127.235 91.3515C136.919 86.0371 149.296 84.6838 159.488 89.3357C162.843 90.7031 164.844 93.9876 164.985 97.5681C160.136 97.8077 155.245 97.8359 150.438 97.0888C147.985 107.295 149.987 118.318 145.391 128.003C139.189 151.53 136.679 175.917 130.392 199.402C123.274 199.895 116.169 198.993 109.036 199.007C93.9949 198.218 78.9257 198.782 63.8564 198.641C58.542 198.669 51.7616 197.259 50.0841 191.381C47.2366 182.26 46.2639 172.675 43.6842 163.47C40.5407 151.91 38.5813 140.083 36.1285 128.369C34.7047 127.086 32.3365 126.297 32.2096 124.084C30.9268 115.471 30.2925 106.562 31.8995 97.9628C35.2545 97.4694 38.6377 97.117 42.0067 96.7787C31.7021 89.3639 18.7333 94.0862 7.18818 94.1708C8.33001 92.6625 9.13351 90.689 10.9802 89.8855C20.594 85.3605 32.0264 83.5561 42.1195 87.6723C45.6578 88.2502 48.3502 91.6757 52.0294 91.1964C52.0576 89.7445 49.8585 89.5189 48.8013 89.0679C44.2481 87.5595 40.0191 85.2759 35.48 83.7816C28.9392 81.5967 23.0609 77.3395 15.9563 77.1281C10.5009 76.2822 5.42611 78.9183 0.139893 79.7359C2.02883 76.7052 3.94597 73.5334 6.96264 71.4894C14.8144 66.1468 23.5402 62.0165 32.8158 59.8456C35.1981 59.3805 37.0588 57.7875 38.8209 56.2228C29.3057 47.4406 15.7448 46.3552 4.46754 40.8293C1.95835 37.7845 5.49659 34.3731 8.767 35.9519C17.8452 38.7008 27.0926 41.2382 35.7338 45.1852C41.7248 49.541 49.3652 50.2177 55.7791 53.7559C52.5651 43.0566 49.2947 32.3291 44.4314 22.2219C41.8094 15.8502 37.2703 9.39398 39.0888 2.14834C61.9393 3.31835 82.0833 20.2906 88.5396 41.9853C91.4999 28.3116 100.437 16.6255 111.517 8.39312ZM93.9808 43.8319C102.523 33.8797 113.646 26.7187 123.978 18.8105C124.768 15.1736 125.289 11.4803 125.67 7.78697C109.135 12.8617 100.677 29.2279 93.9808 43.8319ZM46.856 11.0433C55.906 29.3265 60.7693 49.3014 64.3216 69.2904C65.548 82.1323 73.9637 92.6343 81.1812 102.756C84.1555 98.0192 81.8719 92.6625 81.4913 87.6018C80.2367 78.1853 81.3644 68.6419 83.7749 59.5073C84.1555 57.8157 85.1705 56.4343 86.1431 55.0528C85.5088 55.2924 84.2542 55.7858 83.634 56.0255C81.0825 47.1164 81.5336 36.981 75.4861 29.4252C68.4801 20.3329 58.8381 11.8045 46.856 11.0433ZM104.92 38.292C97.7446 44.0998 93.3183 52.4731 89.8365 60.8465C86.1009 70.108 85.241 80.7086 88.7228 90.1815C90.5272 95.0448 91.3307 101.149 96.1799 104.053C96.2927 95.8906 102.876 90.548 106.555 83.9367C112.278 74.2664 113.209 62.8059 116.592 52.2758C119.186 42.6901 123.852 33.6542 124.923 23.6879C118.156 28.3962 111.291 33.0339 104.92 38.292ZM80.9979 36.403C82.182 41.7456 83.2674 47.2997 86.1572 52.0502C87.8065 51.585 88.5114 49.7525 88.1167 48.1878C87.0453 43.6064 83.9018 39.9413 80.9979 36.403ZM120.2 60.621C118.861 64.1169 117.579 67.641 116.253 71.1511C121.723 66.2032 128.362 62.9469 134.847 59.5778C137.469 58.3514 139.33 56.0255 139.908 53.178C132.662 53.5586 126.586 57.6748 120.2 60.621ZM42.3028 57.266C46.7714 63.5108 53.9606 67.2041 59.6698 72.2647C58.9226 68.0499 58.5138 63.553 56.3148 59.8033C51.9871 57.7452 47.1097 56.7444 42.3028 57.266ZM122.287 72.5326C114.548 78.0302 109.656 86.319 104.06 93.7761C102.354 96.0175 101.043 98.5267 100.028 101.149C109.995 98.9496 117.973 92.0422 126.036 86.1922C136.2 79.7077 146.688 72.8709 158.867 71.0524C151.65 68.9379 144.588 65.9636 137.046 65.1178C131.591 66.1609 126.769 69.3749 122.287 72.5326ZM20.3685 71.9828C32.9144 75.4929 44.6287 81.3711 55.4126 88.6027C62.6723 92.9585 70.9047 96.1866 76.5152 102.798C68.0713 101.092 60.0504 95.9752 51.2259 96.9619C50.5211 99.5134 53.5941 99.4993 55.0461 100.359C62.5173 103.263 70.5382 104.334 78.5169 104.292C77.9389 103.756 76.8112 102.713 76.2332 102.192C72.4131 96.2148 66.3938 91.9295 63.1657 85.5155C59.9094 80.9623 59.5993 74.3228 54.1298 71.5881C44.2622 64.0746 30.2361 64.8922 20.3685 71.9828ZM128.814 98.5267C122.921 99.2315 117.015 100.049 111.573 102.558C121.511 100.994 131.393 98.4562 141.515 98.5408C143.488 98.6676 146.702 98.5266 146.448 95.6509C140.373 92.0704 134.833 98.0051 128.814 98.5267ZM86.2136 107.013C89.4277 104.532 88.6946 100.979 86.8903 97.8923C84.7476 100.5 83.5635 104.25 86.2136 107.013ZM36.0157 103.221C36.4104 109.085 36.4668 115.034 37.8764 120.757C44.9952 124.478 53.0867 125.719 60.8962 127.115C83.6199 130.639 106.936 129.271 129.363 124.422C133.747 123.337 138.174 121.955 142.036 119.531C143.502 113.962 143.22 108.141 143.277 102.446C108.345 111.51 71.0034 112.736 36.0157 103.221ZM80.7019 134.064C67.7471 133.458 54.6655 132.415 42.2323 128.482C45.8974 147.808 50.6339 166.923 54.9333 186.123C55.1589 190.747 59.557 192.903 63.7014 192.791C82.0692 193.213 100.493 191.945 118.847 193.425C121.286 193.143 125.599 194.694 126.417 191.353C131.534 169.982 134.001 148.048 139.485 126.762C120.497 132.485 100.522 134.797 80.7019 134.064Z" fill="#269000"/>
</svg>
