<svg width="67" height="53" viewBox="0 0 67 53" fill="none" xmlns="http://www.w3.org/2000/svg">
<path d="M66.0493 20.7394C65.2042 19.5775 63.9366 18.9437 62.5634 18.9437H56.4366V11.9718C56.4366 9.54225 54.4296 7.53521 52 7.53521H31.6127C30.7676 7.53521 30.0282 7.11268 29.6056 6.47887L27.3873 2.78169C26.6479 1.51408 25.169 0.669014 23.5845 0.669014H4.57042C2.14084 0.669014 0.133789 2.67606 0.133789 5.10563V47.6761C0.133789 50.1056 2.14084 52.1127 4.57042 52.1127H55.169C57.0704 52.1127 58.7606 50.8451 59.3944 49.0493L66.7887 24.8592C67.1056 23.2746 66.8943 21.9014 66.0493 20.7394ZM2.45775 47.5704V5C2.45775 3.73239 3.51406 2.67606 4.78167 2.67606H23.7958C24.6408 2.67606 25.3803 3.09859 25.8028 3.73239L28.0211 7.42958C28.7605 8.69718 30.2394 9.54225 31.8239 9.54225H52C53.2676 9.54225 54.324 10.5986 54.324 11.8662V18.838H16.7183C14.8169 18.838 13.1268 20.1056 12.493 21.9014L4.04225 49.5775C3.09155 49.3662 2.45775 48.6268 2.45775 47.5704ZM64.676 24.0141L57.2817 48.2042C56.9648 49.1549 56.1197 49.7887 55.0634 49.7887H6.15493L14.5 22.6408C14.8169 21.6901 15.662 21.0563 16.7183 21.0563H62.5634C63.3028 21.0563 63.9366 21.3732 64.3592 22.007C64.7817 22.6408 64.8873 23.3803 64.676 24.0141Z" fill="#231F20"/>
<path d="M61.9296 23.0634H55.169C54.5352 23.0634 54.1127 23.4859 54.1127 24.1197C54.1127 24.7535 54.5352 25.1761 55.169 25.1761H61.9296C62.5634 25.1761 62.9859 24.7535 62.9859 24.1197C62.9859 23.4859 62.5634 23.0634 61.9296 23.0634Z" fill="#231F20"/>
<path d="M5.20423 7.11269H7.63379C8.26759 7.11269 8.69013 6.69016 8.69013 6.05635C8.69013 5.42255 8.26759 5.00002 7.63379 5.00002H5.20423C4.57042 5.00002 4.14789 5.42255 4.14789 6.05635C4.14789 6.69016 4.57042 7.11269 5.20423 7.11269Z" fill="#231F20"/>
<path d="M10.5915 7.11269H11.0141C11.6479 7.11269 12.0704 6.69016 12.0704 6.05635C12.0704 5.42255 11.6479 5.00002 11.0141 5.00002H10.5915C9.95772 5.00002 9.53519 5.42255 9.53519 6.05635C9.53519 6.69016 9.95772 7.11269 10.5915 7.11269Z" fill="#231F20"/>
</svg>
